<svg id="flat" height="512" viewBox="0 0 512 512" width="512" xmlns="http://www.w3.org/2000/svg"><path d="m248 417.73a24.58709 24.58709 0 0 1 -12.39014 21.3501l-43.60986 24.9199h-40l48-40-47.18994-9.43994-1.54-.31006a38.90622 38.90622 0 0 1 -27.16016-55.55l.01026.01 93.02 31 14.03979 4.68018a24.596 24.596 0 0 1 16.82005 23.33982z" fill="#ffbfa1"/><path d="m217.14014 389.71-17.14014 34.29-47.18994-9.43994-1.54-.31006a38.90622 38.90622 0 0 1 -27.16016-55.55l.01026.01z" fill="#ffb401"/><path d="m124.11283 358.70364a38.88619 38.88619 0 0 1 7.27993-10.0964 124.98479 124.98479 0 0 1 88.37763-36.60724h4.22961l16 16-40.93185 55.68938z" fill="#ef5e3b"/><path d="m192 464 16 16v8h-56v-24z" fill="#e0edff"/><path d="m257.94113 271.43146v-15.598a16.97058 16.97058 0 0 0 -4.97056-12 16.97054 16.97054 0 0 0 -24 0l-24.17249 24.17254a53.8962 53.8962 0 0 1 -48.6803 14.73921l10.75357 10.75357a40 40 0 0 0 50.47228 4.99775l6.65637-4.43762z" fill="#b1712c"/><path d="m384 120-.20351 21.80813c.20351 7.44671-10.54165 18.19187-23.79649 18.19187a24 24 0 0 1 -24-24v-16z" fill="#ffbfa1"/><path d="m384 120v-8a24 24 0 0 0 -24-24 24 24 0 0 0 -24 24v8z" fill="#c78640"/><path d="m320 112-11.02944-11.02944a16.97054 16.97054 0 0 0 -12-4.97056 16.97054 16.97054 0 0 0 -16.97056 16.97055v34.18507a53.8962 53.8962 0 0 1 -24 44.84438h4.91873a63.63245 63.63245 0 0 0 59.08127-40z" fill="#c78640"/><path d="m312 264v-76.6863a27.31368 27.31368 0 0 1 8-19.3137h40l21.49918 16.12439a26.252 26.252 0 0 1 10.50082 21.00161 26.252 26.252 0 0 1 -7.68905 18.563l-8.31095 8.311v32z" fill="#ef5e3b"/><path d="m312 464 40-16 32 24v16h-72z" fill="#e0edff"/><path d="m376 264v24l-24 160-40 16v-200z" fill="#ffceb6"/><path d="m376 264v24l-6 40h-58v-64z" fill="#ffb401"/><g fill="#ffceb6"><path d="m320 180a20 20 0 0 0 20 20 20 20 0 0 0 20-20v-140a16 16 0 0 0 -16-16h-16v24l-16-8-8 8 16 24z"/><path d="m225.54617 367.7446-33.54617 40.2554 24 48 24 8 8 8-8 16h-40l-36.62438-48.8325a56.87818 56.87818 0 0 1 -11.37562-34.12687 56.87813 56.87813 0 0 1 13.693-37.01579l27.74621-32.37058a21.91876 21.91876 0 0 1 16.64199-7.65426 21.91876 21.91876 0 0 1 21.9188 21.91876 27.84478 27.84478 0 0 1 -6.45383 17.82584z"/><path d="m235.3144 294.05819 22.62671.0007 16.97056 16.97056-16.97058 16.97055a24 24 0 0 1 -33.94109 0 24 24 0 0 1 0-33.94109l5.65687-5.65687z"/></g><path d="m274.91167 311.02945a24 24 0 0 0 0-33.94109 24 24 0 0 0 -33.94109 0l-11.31374 11.31364 5.65756 5.65615 22.62671.0007z" fill="#c78640"/></svg>