<svg id="flat" height="512" viewBox="0 0 512 512" width="512" xmlns="http://www.w3.org/2000/svg"><path d="m440 360v16h-48l-11.42993-120-1.61007-16.91016-68.49 21.07032-79.90994 24.58984-166.56006 51.25-16-48 151.33008-73.5 77.76-37.77 19.99-9.71a149.2687 149.2687 0 0 1 65.29-15.02 91.43814 91.43814 0 0 1 53.62992 17.37012l8 6.62988v168z" fill="#ffceb6"/><path d="m424 176v80h-43.42993l-1.61007-16.91016-68.49 21.07032-33.37991-83.43016 19.99-9.71a149.2687 149.2687 0 0 1 65.29-15.02 91.43814 91.43814 0 0 1 53.62991 17.37012z" fill="#548aff"/><path d="m310.47 260.16-79.91 24.59-31.23-70.25 77.76-37.77z" fill="#ffb401"/><path d="m48 288h-24v88h16l24-40z" fill="#e0edff"/><path d="m377.48046 207.92966a7.99992 7.99992 0 0 1 7.99992 7.99992v15.2297a7.99993 7.99993 0 0 1 -7.99993 7.99993 7.99993 7.99993 0 0 1 -7.99993-7.99993v-15.2297a7.99992 7.99992 0 0 1 7.99992-7.99992z" fill="#4f7ff7" transform="matrix(.995 -.095 .095 .995 -19.494 36.797)"/><path d="m472 176-32-32-17.37259 17.37259a22.6274 22.6274 0 0 0 -6.62741 16 22.62739 22.62739 0 0 0 22.62739 22.62741 22.6274 22.6274 0 0 0 16-6.62741z" fill="#ffceb6"/><path d="m472 176 12.6863-12.6863a16 16 0 0 0 0-22.6274 16 16 0 0 0 -11.31371-4.6863h-25.37259l-8 8z" fill="#c78640"/></svg>