<svg id="flat" height="512" viewBox="0 0 512 512" width="512" xmlns="http://www.w3.org/2000/svg"><path d="m176 96v40h48v-40z" fill="#ffbfa1"/><path d="m352.65 323.62-64.65 116.38-82.15 20.54 74.15-156.54-73-9.73-47-6.27v-48.8l69.92 3.5 80.02 4a51.817 51.817 0 0 1 42.71 76.92z" fill="#ffbfa1"/><path d="m229.92 242.7-22.92 51.57-47-6.27v-48.8z" fill="#ffa100"/><path d="m344 128h96v16l-32 24h-64z" fill="#ffbfa1"/><path d="m224 456 64-16 56 32v16h-120z" fill="#c5dafa"/><path d="m392 128v16l-32 24h-40l-80 21.33-40 10.67-32 48 33.11 5.52 76.74 12.7901a40.87342 40.87342 0 0 1 26.24 64.48l-80.09 109.2099-64 16 72-128h-86.85a73.14173 73.14173 0 0 1 -69.82-94.96 72.33465 72.33465 0 0 1 3.63-9.33 73.6278 73.6278 0 0 1 6.05-10.5l49.45-71.42a31.97878 31.97878 0 0 1 26.31-13.79z" fill="#ffceb6"/><path d="m192 80 16-16h32v32a32 32 0 0 1 -32 32 32 32 0 0 1 -32-32v-16z" fill="#ffceb6"/><path d="m240 64v-16a24 24 0 0 0 -24-24 23.99994 23.99994 0 0 0 -14.4 4.8l-25.6 19.2v32h16l16-16z" fill="#c78640"/><path d="m240 128v61.33l-40 10.67-32 48-89.04-24.29a73.6278 73.6278 0 0 1 6.05-10.5l49.45-71.42a31.97878 31.97878 0 0 1 26.31-13.79z" fill="#548aff"/><path d="m160 456 64-16 56 32v16h-120z" fill="#e0edff"/><path d="m201.11 253.52-33.11 74.48h-22.85a73.14173 73.14173 0 0 1 -69.82-94.96 72.33465 72.33465 0 0 1 3.63-9.33l89.04 24.29z" fill="#ffb401"/></svg>